<svg width="512" height="512" viewBox="0 0 512 512" fill="none" xmlns="http://www.w3.org/2000/svg">
  <rect width="512" height="512" rx="112" fill="#2563EB"/>
  <g fill="#FFFFFF">
    <rect x="238" y="97" width="36" height="48" rx="8"/>
    <rect x="238" y="97" width="36" height="48" rx="8" transform="rotate(45 256 256)"/>
    <rect x="238" y="97" width="36" height="48" rx="8" transform="rotate(90 256 256)"/>
    <rect x="238" y="97" width="36" height="48" rx="8" transform="rotate(135 256 256)"/>
    <rect x="238" y="97" width="36" height="48" rx="8" transform="rotate(180 256 256)"/>
    <rect x="238" y="97" width="36" height="48" rx="8" transform="rotate(225 256 256)"/>
    <rect x="238" y="97" width="36" height="48" rx="8" transform="rotate(270 256 256)"/>
    <rect x="238" y="97" width="36" height="48" rx="8" transform="rotate(315 256 256)"/>
    <circle cx="256" cy="256" r="100" fill="none" stroke="#FFFFFF" stroke-width="34"/>
  </g>
  <circle cx="256" cy="256" r="66" fill="#2563EB"/>
</svg>
